<svg version="1" xmlns="http://www.w3.org/2000/svg" width="682.667" height="682.667" viewBox="0 0 512.000000 512.000000"><path d="M106.9 5.4c-.2.2-2.9.7-5.8 1-6.6.8-14.9 3-24.6 6.5-1.1.4-5.1 2.3-8.8 4.1-27.5 13.6-48 37.5-57.1 66.5-5.7 18.1-5.5 11.4-5.5 172 0 161.3-.1 156.6 6 174.9 13.4 39.8 46.9 67.9 89.9 75.3 5.8 1 304.2 1 309.5 0 11.9-2.3 11-2 16.5-3.6 2.5-.7 7.6-2.6 11.4-4.2 31.8-13.5 56.8-42.7 64.9-75.9.9-3.6 2-7.9 2.4-9.5 1.2-5 1.6-296.6.3-307.4-3-26.4-14.8-50.3-34-68.9-10.4-10-27.7-20.6-41-24.9-19.4-6.4-13.4-6.1-175.6-6.2-81.4 0-148.3.1-148.5.3z"/></svg>